<?xml version="1.0" encoding="UTF-8" standalone="no"?>
<svg
   width="16"
   height="16"
   fill="currentColor"
   version="1.1"
   id="svg5397"
   sodipodi:docname="app.svg"
   inkscape:version="1.4.2 (f4327f4, 2025-05-13)"
   xml:space="preserve"
   xmlns:inkscape="http://www.inkscape.org/namespaces/inkscape"
   xmlns:sodipodi="http://sodipodi.sourceforge.net/DTD/sodipodi-0.dtd"
   xmlns="http://www.w3.org/2000/svg"
   xmlns:svg="http://www.w3.org/2000/svg"><defs
     id="defs5401"><pattern
       patternUnits="userSpaceOnUse"
       width="23.069359"
       height="1.723832"
       patternTransform="translate(-10.960155,-19.26866)"
       id="pattern2814"><path
         style="fill:#ffff00;fill-opacity:1;fill-rule:evenodd;stroke:none;stroke-width:1.1;stroke-linecap:butt;stroke-linejoin:miter;stroke-dasharray:none;paint-order:stroke markers fill"
         d="M 0.088388,0 23.069359,1.723832 H 0 Z"
         id="path2810" /></pattern></defs><sodipodi:namedview
     id="namedview5399"
     pagecolor="#ffffff"
     bordercolor="#000000"
     borderopacity="0.25"
     inkscape:showpageshadow="2"
     inkscape:pageopacity="0.0"
     inkscape:pagecheckerboard="0"
     inkscape:deskcolor="#d1d1d1"
     showgrid="false"
     inkscape:zoom="16"
     inkscape:cx="15.6875"
     inkscape:cy="9.90625"
     inkscape:window-width="1920"
     inkscape:window-height="991"
     inkscape:window-x="-9"
     inkscape:window-y="-9"
     inkscape:window-maximized="1"
     inkscape:current-layer="svg5397" /><path
     id="path3"
     style="fill:#ffffff;stroke:none;stroke-width:0.756405"
     d="M 8.0742188 2.1113281 C 7.2907599 2.0899445 6.5329847 2.4044525 5.9648438 2.984375 L 5.9609375 2.9882812 C 4.7801335 4.1978228 4.7341905 6.2053517 5.859375 7.4746094 C 6.0640352 7.7057041 6.3013366 7.9030212 6.5605469 8.0585938 L 6.1484375 9.8515625 L 7.484375 9.8515625 L 7.484375 10.945312 L 5.8945312 10.945312 L 5.640625 12.046875 L 7.5039062 12.046875 L 7.5039062 13.140625 L 5.3886719 13.140625 L 5.2304688 13.832031 L 10.800781 13.888672 L 9.4492188 8.0527344 C 9.6623546 7.9234495 9.8600569 7.7655414 10.037109 7.5839844 C 11.218844 6.3754297 11.264925 4.367874 10.140625 3.0976562 C 9.60069 2.4878506 8.8573911 2.1327358 8.0742188 2.1113281 z " /><path
     id="path7"
     style="fill:none;stroke:#ffffff;stroke-width:0.856"
     d="M 8.1113281,0.73046875 C 6.934434,0.69834679 5.8015559,1.1774704 4.9785156,2.0175781 a 1.3810757,1.3810757 0 0 0 -0.00586,0.00586 C 3.2708173,3.7666947 3.2091301,6.5665306 4.8261719,8.390625 4.8846851,8.456696 4.9652135,8.4963306 5.0273437,8.5585938 L 3.8847656,13.521484 a 1.3810757,1.3810757 0 0 0 1.3320313,1.691407 l 5.5703121,0.05664 a 1.3810757,1.3810757 0 0 0 1.359375,-1.693359 L 10.988281,8.578125 c 0.01114,-0.011188 0.02608,-0.01799 0.03711,-0.029297 C 12.729023,6.8065311 12.78916,4.0066193 11.173828,2.1816406 10.393297,1.3001048 9.2876162,0.76262211 8.1113281,0.73046875 Z" /></svg>
